# xmcd
#
# Track frame offsets:
#	150
#	11810
#	27425
#	46967
#	66547
#	83463
#	103594
#	118464
#	127349
#	138164
#	157880
#	180165
#
# Disc length: 2625 seconds
#
# Revision: 0
# Processed by: cddbd v1.5.2PL0 Copyright (c) Steve Scherf et al.
# Submitted via: audiograbber 1.83.01
#
DISCID=a00a3f0c
DTITLE=Clem Snide - The Meat Of Life
DYEAR=2010
DGENRE=Alternative Rock
TTITLE0=Walmart Parking Lot
TTITLE1=Denise
TTITLE2=The Meat Of Life
TTITLE3=I Got High
TTITLE4=Denver
TTITLE5=Forgive Me, Love
TTITLE6=Stoney
TTITLE7=BFF
TTITLE8=Please
TTITLE9=Song For Mary
TTITLE10=With Nothing Much To Show Of It
TTITLE11=Anita
EXTD=
EXTT0=
EXTT1=
EXTT2=
EXTT3=
EXTT4=
EXTT5=
EXTT6=
EXTT7=
EXTT8=
EXTT9=
EXTT10=
EXTT11=
PLAYORDER=
